<svg width="60" height="60" viewBox="0 0 60 60" fill="none" xmlns="http://www.w3.org/2000/svg">
<mask id="path-1-outside-1_13_327" maskUnits="userSpaceOnUse" x="-3.11662" y="-3.6456" width="66.0099" height="66.4674" fill="black">
<rect fill="white" x="-3.11662" y="-3.6456" width="66.0099" height="66.4674"/>
<path d="M42.9878 11.7264C46.8685 14.4845 49.7703 18.4064 51.273 22.9239C52.7756 27.4415 52.8011 32.3201 51.3458 36.8532C49.8904 41.3862 47.0298 45.3382 43.1782 48.1368C39.3266 50.9353 34.6841 52.435 29.9233 52.4187C25.1624 52.4024 20.5303 50.871 16.6979 48.0461C12.8656 45.2213 10.0321 41.2497 8.60781 36.7069C7.18352 32.164 7.24243 27.2856 8.776 22.7785C10.3096 18.2713 13.2382 14.3694 17.1376 11.6379L17.1983 11.7246C13.3174 14.4432 10.4026 18.3267 8.87626 22.8126C7.34994 27.2984 7.29131 32.1538 8.70887 36.6752C10.1264 41.1966 12.9466 45.1493 16.7608 47.9608C20.575 50.7724 25.1852 52.2966 29.9236 52.3128C34.662 52.3291 39.2826 50.8364 43.1159 48.0511C46.9493 45.2658 49.7964 41.3324 51.2449 36.8208C52.6934 32.3092 52.668 27.4536 51.1725 22.9574C49.6769 18.4612 46.7888 14.5578 42.9265 11.8127L42.9878 11.7264Z"/>
</mask>
<path d="M42.9878 11.7264C46.8685 14.4845 49.7703 18.4064 51.273 22.9239C52.7756 27.4415 52.8011 32.3201 51.3458 36.8532C49.8904 41.3862 47.0298 45.3382 43.1782 48.1368C39.3266 50.9353 34.6841 52.435 29.9233 52.4187C25.1624 52.4024 20.5303 50.871 16.6979 48.0461C12.8656 45.2213 10.0321 41.2497 8.60781 36.7069C7.18352 32.164 7.24243 27.2856 8.776 22.7785C10.3096 18.2713 13.2382 14.3694 17.1376 11.6379L17.1983 11.7246C13.3174 14.4432 10.4026 18.3267 8.87626 22.8126C7.34994 27.2984 7.29131 32.1538 8.70887 36.6752C10.1264 41.1966 12.9466 45.1493 16.7608 47.9608C20.575 50.7724 25.1852 52.2966 29.9236 52.3128C34.662 52.3291 39.2826 50.8364 43.1159 48.0511C46.9493 45.2658 49.7964 41.3324 51.2449 36.8208C52.6934 32.3092 52.668 27.4536 51.1725 22.9574C49.6769 18.4612 46.7888 14.5578 42.9265 11.8127L42.9878 11.7264Z" fill="#FFD233"/>
<path d="M42.9878 11.7264C46.8685 14.4845 49.7703 18.4064 51.273 22.9239C52.7756 27.4415 52.8011 32.3201 51.3458 36.8532C49.8904 41.3862 47.0298 45.3382 43.1782 48.1368C39.3266 50.9353 34.6841 52.435 29.9233 52.4187C25.1624 52.4024 20.5303 50.871 16.6979 48.0461C12.8656 45.2213 10.0321 41.2497 8.60781 36.7069C7.18352 32.164 7.24243 27.2856 8.776 22.7785C10.3096 18.2713 13.2382 14.3694 17.1376 11.6379L17.1983 11.7246C13.3174 14.4432 10.4026 18.3267 8.87626 22.8126C7.34994 27.2984 7.29131 32.1538 8.70887 36.6752C10.1264 41.1966 12.9466 45.1493 16.7608 47.9608C20.575 50.7724 25.1852 52.2966 29.9236 52.3128C34.662 52.3291 39.2826 50.8364 43.1159 48.0511C46.9493 45.2658 49.7964 41.3324 51.2449 36.8208C52.6934 32.3092 52.668 27.4536 51.1725 22.9574C49.6769 18.4612 46.7888 14.5578 42.9265 11.8127L42.9878 11.7264Z" stroke="#FFD233" stroke-width="4" mask="url(#path-1-outside-1_13_327)"/>
<path d="M22.4189 24.6607L29.8919 17.1877M29.8919 17.1877V43.3432V17.1877ZM37.3649 24.6607L29.8919 17.1877L37.3649 24.6607Z" stroke="#FFD233" stroke-width="4" stroke-linecap="round" stroke-linejoin="round"/>
</svg>
