<svg width="36" height="36" viewBox="0 0 36 36" fill="none" xmlns="http://www.w3.org/2000/svg">
<path d="M32.3685 10.2825C32.5785 9.58499 32.3685 9.07349 31.3755 9.07349H28.086C27.249 9.07349 26.8665 9.51599 26.6565 10.002C26.6565 10.002 24.984 14.0805 22.614 16.725C21.849 17.4945 21.4995 17.7375 21.0825 17.7375C20.874 17.7375 20.571 17.4945 20.571 16.797V10.2825C20.571 9.44549 20.3295 9.07349 19.632 9.07349H14.463C13.941 9.07349 13.626 9.46049 13.626 9.82949C13.626 10.6215 14.811 10.8045 14.9325 13.0365V17.8785C14.9325 18.939 14.742 19.1325 14.322 19.1325C13.2075 19.1325 10.4955 15.039 8.886 10.353C8.5725 9.44249 8.256 9.07499 7.416 9.07499H4.128C3.1875 9.07499 3 9.51749 3 10.0035C3 10.8765 4.1145 15.1965 8.1915 20.91C10.9095 24.8115 14.736 26.9265 18.222 26.9265C20.3115 26.9265 20.5695 26.457 20.5695 25.647V22.698C20.5695 21.759 20.769 21.57 21.4305 21.57C21.9165 21.57 22.7535 21.816 24.705 23.6955C26.934 25.9245 27.303 26.925 28.5555 26.925H31.8435C32.7825 26.925 33.252 26.4555 32.982 25.5285C32.6865 24.606 31.6215 23.2635 30.2085 21.675C29.4405 20.769 28.293 19.794 27.9435 19.3065C27.456 18.678 27.597 18.4005 27.9435 17.8425C27.945 17.844 31.9515 12.201 32.3685 10.2825V10.2825Z" fill="#FFD233"/>
</svg>
