<svg width="36" height="36" viewBox="0 0 36 36" fill="none" xmlns="http://www.w3.org/2000/svg">
<path d="M22.23 6.39001C21.9321 6.92355 21.6666 7.47454 21.435 8.04001C19.1591 7.68009 16.8409 7.68009 14.565 8.04001C14.3334 7.47454 14.0679 6.92355 13.77 6.39001C11.6262 6.75632 9.5421 7.41232 7.575 8.34001C4.05741 13.4164 2.46215 19.5794 3.075 25.725C5.36735 27.4483 7.94019 28.7626 10.68 29.61C11.3039 28.7859 11.8607 27.9131 12.345 27C11.4511 26.6704 10.5919 26.2534 9.78 25.755C10.0027 25.6068 10.2133 25.4413 10.41 25.26C12.7777 26.4005 15.372 26.9927 18 26.9927C20.628 26.9927 23.2223 26.4005 25.59 25.26C25.8 25.44 26.01 25.605 26.22 25.755C25.4036 26.2495 24.5453 26.6711 23.655 27.015C24.1193 27.9488 24.6612 28.842 25.275 29.685C28.0114 28.8405 30.5798 27.5259 32.865 25.8C33.4926 19.6533 31.896 13.4853 28.365 8.41501C26.42 7.46812 24.3565 6.78702 22.23 6.39001V6.39001ZM13.02 22.215C12.2694 22.1611 11.5688 21.8185 11.0654 21.2592C10.5619 20.6998 10.2948 19.9671 10.32 19.215C10.291 18.4619 10.5568 17.7271 11.061 17.1669C11.5652 16.6067 12.268 16.2652 13.02 16.215C13.772 16.2652 14.4748 16.6067 14.979 17.1669C15.4832 17.7271 15.749 18.4619 15.72 19.215C15.749 19.9681 15.4832 20.7029 14.979 21.2631C14.4748 21.8233 13.772 22.1648 13.02 22.215V22.215ZM22.98 22.215C22.2294 22.1611 21.5288 21.8185 21.0254 21.2592C20.5219 20.6998 20.2548 19.9671 20.28 19.215C20.251 18.4619 20.5168 17.7271 21.021 17.1669C21.5252 16.6067 22.228 16.2652 22.98 16.215C23.7334 16.2615 24.4385 16.6019 24.9434 17.1629C25.4484 17.724 25.7129 18.4609 25.68 19.215C25.7129 19.9691 25.4484 20.706 24.9434 21.2671C24.4385 21.8282 23.7334 22.1686 22.98 22.215V22.215Z" fill="#FFD233"/>
</svg>
