<svg width="48" height="48" viewBox="0 0 48 48" fill="none" xmlns="http://www.w3.org/2000/svg">
<path fill-rule="evenodd" clip-rule="evenodd" d="M24.052 4C13.034 4 4.104 12.93 4.104 23.948C4.104 32.76 9.818 40.238 17.746 42.878C18.744 43.058 19.104 42.444 19.104 41.916C19.104 41.442 19.088 40.186 19.082 38.524C13.532 39.728 12.36 35.848 12.36 35.848C11.456 33.544 10.146 32.93 10.146 32.93C8.336 31.692 10.284 31.72 10.284 31.72C12.288 31.86 13.338 33.776 13.338 33.776C15.118 36.824 18.01 35.944 19.142 35.434C19.324 34.144 19.844 33.264 20.412 32.766C15.984 32.264 11.328 30.552 11.328 22.906C11.328 20.732 12.106 18.948 13.376 17.556C13.174 17.05 12.484 15.02 13.574 12.276C13.574 12.276 15.248 11.738 19.058 14.318C20.6852 13.8753 22.3637 13.6494 24.05 13.646C25.7364 13.6487 27.4149 13.8747 29.042 14.318C32.854 11.736 34.526 12.276 34.526 12.276C35.616 15.02 34.932 17.05 34.724 17.556C36.004 18.948 36.772 20.73 36.772 22.906C36.772 30.572 32.112 32.256 27.668 32.75C28.378 33.366 29.018 34.582 29.018 36.442C29.018 39.11 28.994 41.262 28.994 41.916C28.994 42.45 29.35 43.07 30.368 42.874C38.292 40.23 44 32.758 44 23.948C44 12.93 35.07 4 24.052 4Z" fill="#1D1C1C"/>
</svg>
