<svg width="24" height="24" viewBox="0 0 24 24" fill="none" xmlns="http://www.w3.org/2000/svg">
<path d="M20.47 5.63005C20.86 6.02005 20.86 6.64005 20.47 7.03005L9.13 18.37C9.03847 18.4627 8.92947 18.5362 8.80931 18.5864C8.68915 18.6366 8.56022 18.6625 8.43 18.6625C8.29977 18.6625 8.17084 18.6366 8.05068 18.5864C7.93052 18.5362 7.82152 18.4627 7.73 18.37L3.53 14.17C3.43736 14.0785 3.36381 13.9695 3.31361 13.8494C3.26341 13.7292 3.23756 13.6003 3.23756 13.47C3.23756 13.3398 3.26341 13.2109 3.31361 13.0907C3.36381 12.9706 3.43736 12.8616 3.53 12.77C3.62152 12.6774 3.73052 12.6039 3.85068 12.5537C3.97084 12.5035 4.09977 12.4776 4.23 12.4776C4.36022 12.4776 4.48915 12.5035 4.60931 12.5537C4.72947 12.6039 4.83847 12.6774 4.93 12.77L8.43 16.27L19.07 5.63005C19.1615 5.53741 19.2705 5.46386 19.3907 5.41366C19.5108 5.36346 19.6398 5.33761 19.77 5.33761C19.9002 5.33761 20.0292 5.36346 20.1493 5.41366C20.2695 5.46386 20.3785 5.53741 20.47 5.63005V5.63005ZM18.36 3.51005L8.43 13.44L5.64 10.65C4.86 9.87005 3.59 9.87005 2.81 10.65L1.41 12.05C0.629997 12.83 0.629997 14.1 1.41 14.88L7.01 20.48C7.79 21.26 9.06 21.26 9.84 20.48L22.59 7.74005C23.37 6.96005 23.37 5.69005 22.59 4.91005L21.19 3.51005C20.4 2.73005 19.14 2.73005 18.36 3.51005V3.51005Z" fill="#FFD233"/>
</svg>
