<svg width="24" height="24" viewBox="0 0 24 24" fill="none" xmlns="http://www.w3.org/2000/svg">
<path d="M20 12C20 14.1218 19.1571 16.1566 17.6569 17.6569C16.1566 19.1572 14.1217 20 12 20C9.87827 20 7.84344 19.1572 6.34315 17.6569C4.84285 16.1566 4 14.1218 4 12C4 9.87831 4.84285 7.84348 6.34315 6.34319C7.84344 4.8429 9.87827 4.00004 12 4.00004C12.76 4.00004 13.5 4.11004 14.2 4.31004L15.77 2.74004C14.5743 2.24761 13.2931 1.99613 12 2.00004C10.6868 2.00004 9.38642 2.2587 8.17317 2.76125C6.95991 3.2638 5.85752 4.00039 4.92893 4.92898C3.05357 6.80434 2 9.34788 2 12C2 14.6522 3.05357 17.1957 4.92893 19.0711C5.85752 19.9997 6.95991 20.7363 8.17317 21.2388C9.38642 21.7414 10.6868 22 12 22C14.6522 22 17.1957 20.9465 19.0711 19.0711C20.9464 17.1957 22 14.6522 22 12H20ZM7.91 10.08L6.5 11.5L11 16L21 6.00004L19.59 4.58004L11 13.17L7.91 10.08Z" fill="#FFD233"/>
</svg>
