<svg width="36" height="36" viewBox="0 0 36 36" fill="none" xmlns="http://www.w3.org/2000/svg">
<path d="M31.5 6.75H4.5C4.20163 6.75 3.91548 6.86853 3.7045 7.07951C3.49353 7.29048 3.375 7.57663 3.375 7.875V27C3.375 27.5967 3.61205 28.169 4.03401 28.591C4.45597 29.0129 5.02826 29.25 5.625 29.25H30.375C30.9717 29.25 31.544 29.0129 31.966 28.591C32.3879 28.169 32.625 27.5967 32.625 27V7.875C32.625 7.57663 32.5065 7.29048 32.2955 7.07951C32.0845 6.86853 31.7984 6.75 31.5 6.75ZM19.7016 17.1562L18 18.7172L7.39687 9H28.6031L19.7016 17.1562ZM13.8797 18L5.625 25.5656V10.4344L13.8797 18ZM15.5391 19.5328L17.2406 21.0797C17.448 21.2694 17.7189 21.3746 18 21.3746C18.2811 21.3746 18.552 21.2694 18.7594 21.0797L20.4609 19.5328L28.6031 27H7.39687L15.5391 19.5328ZM22.1203 18L30.375 10.4344V25.5656L22.1203 18Z" fill="#FFD233"/>
</svg>
