<svg width="36" height="36" viewBox="0 0 36 36" fill="none" xmlns="http://www.w3.org/2000/svg">
<path d="M18.014 9C16.9015 9 15.814 9.3299 14.889 9.94798C13.9639 10.5661 13.243 11.4446 12.8172 12.4724C12.3915 13.5002 12.2801 14.6312 12.4971 15.7224C12.7142 16.8135 13.2499 17.8158 14.0366 18.6025C14.8232 19.3891 15.8255 19.9249 16.9167 20.1419C18.0078 20.359 19.1388 20.2476 20.1666 19.8218C21.1945 19.3961 22.073 18.6751 22.6911 17.7501C23.3091 16.8251 23.639 15.7375 23.639 14.625C23.6353 13.1343 23.0415 11.7057 21.9874 10.6516C20.9333 9.59754 19.5047 9.00371 18.014 9V9ZM18.014 18C17.3465 18 16.694 17.8021 16.139 17.4312C15.584 17.0604 15.1514 16.5333 14.8959 15.9166C14.6405 15.2999 14.5737 14.6213 14.7039 13.9666C14.8341 13.3119 15.1556 12.7105 15.6276 12.2385C16.0996 11.7665 16.7009 11.4451 17.3556 11.3149C18.0103 11.1846 18.6889 11.2515 19.3056 11.5069C19.9223 11.7624 20.4494 12.1949 20.8202 12.75C21.1911 13.305 21.389 13.9575 21.389 14.625C21.3853 15.519 21.0286 16.3753 20.3964 17.0074C19.7643 17.6395 18.908 17.9963 18.014 18ZM18.014 2.25C14.7331 2.25372 11.5877 3.55871 9.2677 5.87866C6.94775 8.19862 5.64276 11.3441 5.63904 14.625C5.63904 19.0406 7.6781 23.7234 11.5453 28.1531C13.2836 30.1596 15.2358 31.9703 17.3672 33.5531C17.5588 33.6807 17.7838 33.7488 18.014 33.7488C18.2442 33.7488 18.4693 33.6807 18.6609 33.5531C20.7985 31.9727 22.7556 30.1618 24.4969 28.1531C28.35 23.7234 30.389 19.0406 30.389 14.625C30.3853 11.3441 29.0803 8.19862 26.7604 5.87866C24.4404 3.55871 21.295 2.25372 18.014 2.25V2.25ZM18.014 31.2188C15.6937 29.3906 7.88904 22.6688 7.88904 14.625C7.88904 11.9397 8.95578 9.36435 10.8546 7.46554C12.7534 5.56674 15.3287 4.5 18.014 4.5C20.6994 4.5 23.2747 5.56674 25.1735 7.46554C27.0723 9.36435 28.139 11.9397 28.139 14.625C28.139 22.6688 20.3344 29.3906 18.014 31.2188Z" fill="#FFD233"/>
</svg>
